<?xml version="1.0" ?><!DOCTYPE svg  PUBLIC '-//W3C//DTD SVG 1.1//EN'  'http://www.w3.org/Graphics/SVG/1.1/DTD/svg11.dtd'><svg height="512px" style="enable-background:new 0 0 512 512;" version="1.1" viewBox="0 0 512 512" width="512px" xml:space="preserve" xmlns="http://www.w3.org/2000/svg" xmlns:xlink="http://www.w3.org/1999/xlink"><g id="_x37_1-github"><path d="M376,16H136C69.726,16,16,69.726,16,136v240c0,66.274,53.726,120,120,120h240c66.274,0,120-53.726,120-120V136   C496,69.726,442.274,16,376,16z M311.559,416.564c-8.514,1.657-11.532-3.585-11.532-8.087c0-5.515,0.208-23.664,0.208-46.176   c0-15.701-5.367-25.965-11.387-31.167c37.374-4.168,76.596-18.4,76.596-83.057c0-18.384-6.482-33.409-17.24-45.19   c1.72-4.251,7.467-21.355-1.679-44.536c0,0-14.072-4.526-46.103,17.25c-13.404-3.754-27.769-5.595-42.01-5.68   c-14.283,0.063-28.63,1.926-42.014,5.657c-32.044-21.773-46.14-17.251-46.14-17.251c-9.124,23.161-3.378,40.285-1.639,44.54   c-10.735,11.78-17.282,26.807-17.282,45.188c0,64.488,39.182,78.93,76.434,83.188c-4.807,4.213-9.147,11.63-10.657,22.506   c-9.563,4.316-33.875,11.738-48.851-13.978c0,0-8.85-16.159-25.691-17.353c0,0-16.382-0.211-1.135,10.227   c0,0,11.014,5.174,18.629,24.626c0,0,9.856,32.738,56.522,22.57c0.088,14.046,0.232,24.63,0.232,28.635   c0,4.466-3.063,9.662-11.452,8.106c-66.697-22.277-114.771-85.363-114.771-159.725c0-92.976,75.128-168.343,167.771-168.343   c92.688,0,167.816,75.367,167.816,168.343C426.186,331.201,378.153,394.262,311.559,416.564z"/></g><g id="Layer_1"/></svg>